<svg xmlns="http://www.w3.org/2000/svg" viewBox="0 0 512 512"><title>Notification</title><g id="Notification"><g id="Notification-2" data-name="Notification"><path d="M256,73.8247c-100.6128,0-182.18,81.5625-182.18,182.1708a182.18,182.18,0,0,0,364.36,0C438.18,155.3872,356.6083,73.8247,256,73.8247Zm0,282.92a23.683,23.683,0,0,1-23.6817-23.6781h47.36A23.68,23.68,0,0,1,256,356.7451ZM336.0154,309.32c0,8.7534-7.0929,9.3339-15.8418,9.3339H191.8219c-8.7489,0-15.8373-.5805-15.8373-9.3339v-1.512a15.8138,15.8138,0,0,1,9.009-14.247l5.031-43.4178a66.01,66.01,0,0,1,52.41-64.5912v-16.857a13.5725,13.5725,0,0,1,27.1449,0v16.857a66.01,66.01,0,0,1,52.4043,64.5912l5.0319,43.4268a15.7933,15.7933,0,0,1,9.009,14.238v1.512Z"/></g></g></svg>